Coordinates
version=1
nRows=6
nColumns=34
inDegrees=yes

Units are S.I. units (second, meters, Newtons, ...)
If the header above contains a line with 'inDegrees', this indicates whether rotational values are in degrees (yes) or radians (no).

endheader
time	pelvis_tilt	pelvis_list	pelvis_rotation	pelvis_tx	pelvis_ty	pelvis_tz	hip_flexion_r	hip_adduction_r	hip_rotation_r	knee_angle_r	ankle_angle_r	subtalar_angle_r	mtp_angle_r	hip_flexion_l	hip_adduction_l	hip_rotation_l	knee_angle_l	ankle_angle_l	subtalar_angle_l	mtp_angle_l	lumbar_extension	lumbar_bending	lumbar_rotation	arm_flex_r	arm_add_r	arm_rot_r	elbow_flex_r	pro_sup_r	arm_flex_l	arm_add_l	arm_rot_l	elbow_flex_l	pro_sup_l
      2.21666670	     -2.81828653	      1.71633099	     -2.24295277	      1.78393995	      0.88648077	     -0.16658075	      0.22088274	     -8.44306218	      2.87709008	      0.00000000	      0.98046567	    -17.49501263	      0.00000000	     -0.42222307	     -2.87778354	     -3.63142513	      0.00000000	      2.58132609	     -5.01939597	      0.00000000	     -7.76018286	      0.54193555	     -1.36841973	     11.40575475	     -8.20587016	     35.83174444	     87.23903938	     90.20772275	      6.21329209	     -8.26161682	     27.61819594	     82.65791073	     88.41500682
      2.23333330	     -2.82836203	      1.71485214	     -2.24358479	      1.78354073	      0.88606453	     -0.16646492	      0.21434376	     -8.44425566	      2.87819567	      0.00000000	      0.98101261	    -17.49466956	      0.00000000	     -0.42539561	     -2.87621301	     -3.63093899	      0.00000000	      2.58122691	     -5.01879372	      0.00000000	     -7.76000688	      0.54172563	     -1.36897000	     11.40516862	     -8.20493571	     35.83179827	     87.24046522	     90.20752218	      6.21509142	     -8.26091976	     27.61767816	     82.65878446	     88.41491960
      2.25000000	     -2.81945824	      1.80278980	     -2.33481171	      1.78266445	      0.88560061	     -0.16641067	      0.23014926	     -8.52950015	      3.22198933	      0.00000000	      1.37787740	    -17.37622292	      0.00000000	     -0.43047371	     -2.78387832	     -3.71580366	      0.00000000	      2.67282605	     -4.80443701	      0.00000000	     -8.16039283	      0.35742498	     -1.07753544	     10.89182291	     -8.29947274	     35.48750899	     88.99521844	     89.80421450	      6.56828366	     -8.05738197	     27.30145319	     83.45838279	     88.26924282
      2.26666670	     -2.81812771	      1.80740204	     -2.35104630	      1.78213101	      0.88550785	     -0.16687375	      0.22952123	     -8.51507549	      3.22088253	      0.00000000	      1.38050913	    -17.37680314	      0.00000000	     -0.42516033	     -2.76826958	     -3.71264226	      0.00000000	      2.67150085	     -4.80283655	      0.00000000	     -8.16137643	      0.35640456	     -1.07897757	     10.89022636	     -8.29326373	     35.49038908	     88.99648689	     89.80307896	      6.57964423	     -8.05386450	     27.30020917	     83.46057045	     88.26873361
      2.28333330	     -2.84531792	      1.84933727	     -2.50090306	      1.78189938	      0.88580915	     -0.16744221	      0.31661046	     -8.55957009	      3.23440355	      0.00000000	      1.43090975	    -17.37251621	      0.00000000	     -0.40203251	     -2.71353750	     -3.70320344	      0.00000000	      2.63665279	     -4.80321227	      0.00000000	     -8.23130351	      0.34862764	     -1.10396631	     10.87004812	     -8.17529662	     35.56770336	     89.01724988	     89.79301835	      6.80710627	     -7.96492292	     27.27232542	     83.50592849	     88.26166384
      2.30000000	     -2.89232292	      1.92708606	     -2.42696381	      1.78176905	      0.88612254	     -0.16812187	      0.35247199	     -8.65083702	      3.35804856	      0.00000000	      1.50720003	    -17.30487559	      0.00000000	     -0.26181849	     -2.61263597	     -3.78846894	      0.01462441	      2.54133066	     -4.85159920	      0.00000000	     -8.39979012	      0.27310656	     -0.99263088	     10.89665544	     -7.96249903	     35.74069952	     89.05580824	     89.77925967	      7.09498887	     -7.83907039	     27.23482951	     83.55658515	     88.24897039
